<?xml version="1.0" encoding="utf-8"?>
<!-- Generator: Adobe Illustrator 19.0.0, SVG Export Plug-In . SVG Version: 6.00 Build 0)  -->
<svg version="1.1" id="Layer_1" xmlns="http://www.w3.org/2000/svg" xmlns:xlink="http://www.w3.org/1999/xlink" x="0px" y="0px"
	 viewBox="0 0 512 512" style="enable-background:new 0 0 512 512;" xml:space="preserve">
<g id="XMLID_1_">
	<polygon id="XMLID_3_" points="312.7,512 348.6,512 348.6,346.5 312.7,356.7 	"/>
	<path id="XMLID_4_" d="M410,112.6h-74.2L327.2,227c0,0.9,0,11.1-6,17.9c-3.4,3.4-7.7,5.1-12.8,5.1c-2.6,0-12.8,0-17.9-6
		c-1.7-1.7-2.6-4.3-2.6-7.7l8.5-123.7H194.1c66.6,14.5,64.9,97.3,64.9,98.1v151l1.7,0.9l42.7-11.9l8.5-2.6l35.8-10.2l8.5-2.6
		l106.7-30.7c0-13.7,0-68.3,0-126.3C463.8,116.9,412.6,112.6,410,112.6z"/>
	<path id="XMLID_5_" d="M187.3,120.3c-4.3-0.9-8.5-0.9-12.8-0.9c-1.7,0-2.6,0-4.3,0c-1.7,0-3.4,0-4.3,0.9
		c-9.4,1.7-16.2,5.1-21.3,11.1c-12.8,15.4-9.4,41-8.5,41v133.1l80.2,34.1l11.1,5.1l23.9,10.2l0,0V209.9v-0.9c0-3.4,0-17.9-5.1-34.1
		C239.4,151.9,224,125.4,187.3,120.3z"/>
	<path id="XMLID_6_" d="M62.7,389.1c0,0-30.7,48.6,0,78.5c9.4,9.4,22.2,13.7,36.7,13.7c29,0,58.9-17.1,70.8-28.2
		c16.2-16.2,65.7-70.8,80.2-87l-117.8-52.9L62.7,389.1z"/>
	<path id="XMLID_7_" d="M315.3,238.1c3.4-3.4,3.4-9.4,3.4-11.9l8.5-114.3l0.9-8.5l2.6-39.3h4.3c0,0,12.8,0.9,23.9-0.9
		c7.7-0.9,8.5-6.8,8.5-8.5c0-0.9,2.6-12.8,3.4-27.3c0.9-10.2-6.8-11.9-7.7-12.8L312.7,0l-6.8,103.3l-0.9,8.5l-8.5,124.6
		c1.7,2.6,6,3.4,11.9,3.4C311,240.6,313.6,239.8,315.3,238.1z"/>
</g>
</svg>
